<svg xmlns="http://www.w3.org/2000/svg" width="400" height="376" viewBox="0 0 400 376" role="img" aria-label="GitHub stats for ValleyJin">
<style>
.kick{font-family:ui-monospace,Menlo,Consolas,monospace;font-size:12px;letter-spacing:2.5px;fill:#6b6d77}
.num{font-family:-apple-system,Segoe UI,Helvetica,Arial,sans-serif;font-size:30px;font-weight:650;fill:#0f8f79}
.lbl{font-family:ui-monospace,Menlo,Consolas,monospace;font-size:10px;letter-spacing:1.5px;fill:#6b6d77}
.lng{font-family:ui-monospace,Menlo,Consolas,monospace;font-size:12px;fill:#16171b}
.pct{font-family:ui-monospace,Menlo,Consolas,monospace;font-size:12px;fill:#6b6d77}
</style>
<text x="6" y="20" class="kick">GITHUB ACTIVITY · @VALLEYJIN</text>
<text x="6" y="78" class="num">1,287</text>
<text x="6" y="100" class="lbl">CONTRIBUTIONS</text>
<text x="208" y="78" class="num">53</text>
<text x="208" y="100" class="lbl">REPOSITORIES</text>
<text x="6" y="146" class="num">12</text>
<text x="6" y="168" class="lbl">STARS EARNED</text>
<text x="208" y="146" class="num">25</text>
<text x="208" y="168" class="lbl">FOLLOWERS</text>
<line x1="6" y1="196" x2="394" y2="196" stroke="#e6e6e4" stroke-width="1"/>
<path d="M 78.00 234.00 A 54 54 0 0 1 125.91 312.91" fill="none" stroke="#0f8f79" stroke-width="20"/>
<path d="M 125.91 312.91 A 54 54 0 0 1 49.22 333.69" fill="none" stroke="#3aa593" stroke-width="20"/>
<path d="M 49.22 333.69 A 54 54 0 0 1 27.86 267.96" fill="none" stroke="#66ac9d" stroke-width="20"/>
<path d="M 27.86 267.96 A 54 54 0 0 1 50.74 241.38" fill="none" stroke="#9099a3" stroke-width="20"/>
<path d="M 50.74 241.38 A 54 54 0 0 1 78.00 234.00" fill="none" stroke="#c3c9d4" stroke-width="20"/>
<rect x="176" y="237" width="10" height="10" rx="2" fill="#0f8f79"/>
<text x="194" y="246" class="lng">TypeScript</text>
<text x="390" y="246" text-anchor="end" class="pct">31%</text>
<rect x="176" y="259" width="10" height="10" rx="2" fill="#3aa593"/>
<text x="194" y="268" class="lng">CSS</text>
<text x="390" y="268" text-anchor="end" class="pct">25%</text>
<rect x="176" y="281" width="10" height="10" rx="2" fill="#66ac9d"/>
<text x="194" y="290" class="lng">JavaScript</text>
<text x="390" y="290" text-anchor="end" class="pct">21%</text>
<rect x="176" y="303" width="10" height="10" rx="2" fill="#9099a3"/>
<text x="194" y="312" class="lng">HTML</text>
<text x="390" y="312" text-anchor="end" class="pct">10%</text>
<rect x="176" y="325" width="10" height="10" rx="2" fill="#c3c9d4"/>
<text x="194" y="334" class="lng">Java</text>
<text x="390" y="334" text-anchor="end" class="pct">8%</text>
</svg>
